<svg width="1050" height="158" viewBox="0 0 1050 158" fill="none" xmlns="http://www.w3.org/2000/svg">
<path d="M139.809 157H1L143.055 145.784L161.055 83.5882L200.006 70.1765H222.669L240.374 52.5294L258.079 70.1765H272.952L282.867 60.2941H332.441V40.5294L348.73 1H479.748L495.329 16.5294L510.909 1L550.569 40.5294H612.183L661.758 60.2941H675.214L693.627 20.3726L712.04 60.2941H722.664L777.904 76.5294H786.402L801.983 61.7059L817.563 76.5294H826.062H874.928L898.524 145.275L1049 157H902.548H139.809Z" fill="white"/>
<path d="M139.809 157H1L143.055 145.784M139.809 157H902.548M139.809 157L143.055 145.784M902.548 157H1049L898.524 145.275M902.548 157L898.524 145.275M143.055 145.784L161.055 83.5882L200.006 70.1765H222.669L240.374 52.5294L258.079 70.1765H272.952L282.867 60.2941H332.441V40.5294L348.73 1H479.748L495.329 16.5294L510.909 1L550.569 40.5294H612.183L661.758 60.2941H675.214L693.627 20.3726L712.04 60.2941H722.664L777.904 76.5294H786.402L801.983 61.7059L817.563 76.5294H826.062H874.928L898.524 145.275" stroke="white"/>
</svg>
