<svg width="1070" height="155" viewBox="0 0 1070 155" fill="none" xmlns="http://www.w3.org/2000/svg">
<path d="M156.924 82L136.093 154H883.913L856.833 75.0769H808.923H800.591L785.315 60.5385L770.039 75.0769H761.707L707.547 59.1538H697.132L679.078 20L661.025 59.1538H647.833L599.228 39.7692H538.819L499.935 1L484.659 16.2308L469.384 1H340.928L324.958 39.7692V59.1538H276.353L266.632 68.8462H252.051L234.692 51.5385L217.333 68.8462H195.114L156.924 82Z" fill="white"/>
<path d="M136.093 154H0M136.093 154L156.924 82L195.114 68.8462H217.333L234.692 51.5385L252.051 68.8462H266.632L276.353 59.1538H324.958V39.7692L340.928 1H469.384L484.659 16.2308L499.935 1L538.819 39.7692H599.228L647.833 59.1538H661.025L679.078 20L697.132 59.1538H707.547L761.707 75.0769H770.039L785.315 60.5385L800.591 75.0769H808.923H856.833L883.913 154M136.093 154H883.913M883.913 154H1070" stroke="white"/>
</svg>
